HIERARCHY
ROOT Hips
{
	OFFSET -3.958830 18.904000 13.208200
	CHANNELS 6 Xposition Yposition Zposition Zrotation Yrotation Xrotation 
	JOINT LHipJoint
	{
		OFFSET 0.000000 0.000000 0.000000
		CHANNELS 3 Zrotation Yrotation Xrotation
		JOINT LeftUpLeg
		{
			OFFSET 1.800000 -1.400000 0.085000
			CHANNELS 3 Zrotation Yrotation Xrotation
			JOINT LeftLeg
			{
				OFFSET 2.215000 -6.000000 0.000000
				CHANNELS 3 Zrotation Yrotation Xrotation
				JOINT LeftFoot
				{
					OFFSET 2.500000 -6.900000 0.000000
					CHANNELS 3 Zrotation Yrotation Xrotation
					JOINT LeftToeBase
					{
						OFFSET 0.200000 -0.500000 1.950000
						CHANNELS 3 Zrotation Yrotation Xrotation
						End Site
						{
							OFFSET 0.000000 0.000000 0.000000
						}
					}
				}
			}
		}
	}
	JOINT RHipJoint
	{
		OFFSET 0.000000 0.000000 0.000000
		CHANNELS 3 Zrotation Yrotation Xrotation
		JOINT RightUpLeg
		{
			OFFSET -1.800000 -1.400000 0.085000
			CHANNELS 3 Zrotation Yrotation Xrotation
			JOINT RightLeg
			{
				OFFSET -2.215000 -6.000000 0.000000
				CHANNELS 3 Zrotation Yrotation Xrotation
				JOINT RightFoot
				{
					OFFSET -2.500000 -6.900000 0.000000
					CHANNELS 3 Zrotation Yrotation Xrotation
					JOINT RightToeBase
					{
						OFFSET -0.200000 -0.500000 1.950000
						CHANNELS 3 Zrotation Yrotation Xrotation
						End Site
						{
							OFFSET 0.000000 0.000000 0.000000
						}
					}
				}
			}
		}
	}
	JOINT LowerBack
	{
		OFFSET 0.000000 0.000000 0.000000
		CHANNELS 3 Zrotation Yrotation Xrotation
		JOINT Spine
		{
			OFFSET -0.087000 1.940000 -0.288900
			CHANNELS 3 Zrotation Yrotation Xrotation
			JOINT Spine1
			{
				OFFSET 0.000000 1.950000 0.060000
				CHANNELS 3 Zrotation Yrotation Xrotation
				JOINT Neck
				{
					OFFSET 0.000000 0.000000 0.000000
					CHANNELS 3 Zrotation Yrotation Xrotation
					JOINT Neck1
					{
						OFFSET 0.000000 1.600000 0.340000
						CHANNELS 3 Zrotation Yrotation Xrotation
						JOINT Head
						{
							OFFSET 0.000000 1.667000 -0.240000
							CHANNELS 3 Zrotation Yrotation Xrotation
							End Site
							{
								OFFSET 0.000000 0.000000 0.000000
							}
						}
					}
				}
				JOINT LeftShoulder
				{
					OFFSET 0.000000 0.000000 0.000000
					CHANNELS 3 Zrotation Yrotation Xrotation
					JOINT LeftArm
					{
						OFFSET 2.700000 1.550000 -0.730000
						CHANNELS 3 Zrotation Yrotation Xrotation
						JOINT LeftForeArm
						{
							OFFSET 5.450000 0.000000 0.000000
							CHANNELS 3 Zrotation Yrotation Xrotation
							JOINT LeftHand
							{
								OFFSET 3.450000 0.000000 0.000000
								CHANNELS 3 Zrotation Yrotation Xrotation
								JOINT LeftHandIndex1
								{
									OFFSET 0.750000 0.000000 0.000000
									CHANNELS 3 Zrotation Yrotation Xrotation
									End Site
									{
										OFFSET 0.000000 0.000000 0.000000
									}
								}
							}
						}
					}
				}
				JOINT RightShoulder
				{
					OFFSET 0.000000 0.000000 0.000000
					CHANNELS 3 Zrotation Yrotation Xrotation
					JOINT RightArm
					{
						OFFSET -2.700000 1.550000 -0.730000
						CHANNELS 3 Zrotation Yrotation Xrotation
						JOINT RightForeArm
						{
							OFFSET -5.450000 0.000000 0.000000
							CHANNELS 3 Zrotation Yrotation Xrotation
							JOINT RightHand
							{
								OFFSET -3.450000 0.000000 0.000000
								CHANNELS 3 Zrotation Yrotation Xrotation
								JOINT RightHandIndex1
								{
									OFFSET -0.750000 0.000000 0.000000
									CHANNELS 3 Zrotation Yrotation Xrotation
									End Site
									{
										OFFSET 0.000000 0.000000 0.000000
									}
								}
							}
						}
					}
				}
			}
		}
	}
}
MOTION
Frames: 10
Frame Time: 0.016667
0.161270 16.452340 1.896970 -4.932212 14.833178 -6.578999 -15.322424 12.115766 1.627067 4.115148 -1.252847 -6.151770 -4.861547 4.588988 7.674183 -1.051155 4.430804 3.252954 0.535070 0.292380 0.321040 18.829414 -6.801326 6.496884 -19.196490 3.602138 -68.754847 18.500268 -36.981089 80.583663 -3.089273 -16.478665 -0.752949 0.519960 0.582320 0.248430 -4.080386 -4.957333 -8.731066 13.590957 -9.421210 16.767679 -4.311710 -6.403600 10.045265 -4.875430 -5.603059 -7.822421 -14.482587 3.462494 27.352817 -1.075240 0.226820 -11.824970 -23.481338 -23.783461 -2.159350 -14.209019 -37.467811 -3.743139 39.770559 -43.245888 -16.654320 -4.149996 2.464485 0.493070 0.367120 -0.164780 0.236410 31.915430 17.383260 10.078122 36.663098 -1.529752 -7.330928 3.870221 29.301324 -0.756314 1.600845 -1.529481 -0.460860 0.583340 0.117010 -0.201610 
0.163870 16.445000 1.947440 -4.774227 13.857831 -6.344583 -15.324873 12.202040 1.696021 4.320561 -1.306707 -5.985991 -5.377110 4.740362 7.891249 -0.993647 4.468014 3.236280 0.547190 0.309180 0.315930 18.797685 -6.917025 6.354484 -18.733946 3.241272 -67.327504 18.233942 -35.454530 78.337374 -2.949208 -15.955671 -0.645863 0.508750 0.562460 0.246650 -4.041132 -5.014027 -8.687738 13.424916 -9.259257 16.908905 -4.042067 -6.315039 9.445871 -4.879691 -6.092897 -7.833113 -15.385157 3.491661 26.913996 -0.586790 -0.159000 -12.060130 -24.173389 -22.855711 -2.208303 -15.697975 -37.418207 -3.262707 38.599072 -44.970781 -16.608442 -4.082748 2.484904 0.488350 0.340740 -0.151150 0.247460 32.674279 16.865136 10.254111 35.880152 -3.083988 -7.686915 5.566247 29.937461 -0.417532 1.601563 -1.572744 -0.432690 0.565080 0.098220 -0.184770 
0.167660 16.438410 2.000710 -4.502165 12.718343 -6.082998 -15.329228 12.325822 1.779676 4.415331 -1.347790 -5.911034 -5.815457 4.908797 8.328115 -0.935972 4.507737 3.220338 0.539460 0.311770 0.286830 18.753854 -7.088153 6.152228 -17.914871 3.000102 -65.520109 17.237033 -33.289803 76.022485 -2.763561 -15.324069 -0.509923 0.491820 0.558120 0.244140 -3.986703 -5.059650 -8.627271 13.083068 -8.889020 16.751129 -3.787374 -6.061463 9.327287 -4.771065 -6.318502 -8.077297 -15.842960 3.449438 26.816733 -0.126320 -0.418650 -11.795060 -24.572541 -22.498406 -1.941953 -17.496248 -37.213569 -2.993838 37.632068 -46.804163 -16.793945 -4.029058 2.504376 0.473830 0.328930 -0.148940 0.260000 32.899819 16.879862 10.542267 36.105720 -4.421202 -8.075847 6.629262 30.217477 -0.265256 1.605395 -1.601609 -0.410860 0.546710 0.089720 -0.163840 
0.171500 16.430680 2.057990 -3.974687 11.609217 -5.950293 -15.348889 12.512881 1.901567 4.310642 -1.327396 -5.658863 -6.230683 5.099350 8.789100 -0.871064 4.580681 3.197275 0.506940 0.278620 0.256380 18.680290 -7.306750 5.878246 -16.942111 2.614174 -63.073354 15.755941 -30.676419 73.361659 -2.529489 -14.546814 -0.338696 0.454460 0.563550 0.249020 -3.871407 -5.168977 -8.570133 12.141263 -8.415679 16.551767 -3.289466 -5.852487 9.497590 -4.626554 -6.268614 -8.469527 -15.940626 3.443562 27.254126 0.111140 -0.391860 -11.179890 -24.867208 -22.525980 -1.382522 -19.320041 -36.771910 -2.986591 36.320302 -48.772650 -16.929936 -3.994148 2.518617 0.461670 0.328340 -0.150940 0.260560 32.995586 17.220013 10.847749 36.691604 -5.361552 -8.432734 7.304966 30.118219 -0.204376 1.618122 -1.606037 -0.397230 0.525790 0.095170 -0.149590 
0.172630 16.423020 2.116540 -3.390705 10.445075 -5.860581 -15.373306 12.739582 2.047664 4.191423 -1.294765 -5.364625 -6.613809 5.295116 9.272525 -0.794023 4.650327 3.175077 0.477330 0.253630 0.225490 18.589478 -7.579322 5.542417 -15.723449 2.202749 -60.255281 13.999177 -27.684533 70.117497 -2.256153 -13.606016 -0.113927 0.415780 0.567290 0.256070 -3.726444 -5.281531 -8.502065 10.948328 -7.873578 16.295270 -2.575522 -5.649709 9.744913 -4.527979 -6.050226 -8.871354 -15.779598 3.438122 27.958973 0.330350 -0.246290 -10.434420 -25.189004 -22.717003 -0.764936 -21.106406 -36.477519 -2.961655 33.989677 -50.536273 -16.490086 -3.957229 2.554407 0.442610 0.330930 -0.151260 0.263600 33.234190 17.649772 11.147512 37.328178 -6.098995 -8.778917 7.737700 29.951437 -0.206011 1.632395 -1.614314 -0.375060 0.498450 0.094980 -0.132020 
0.170550 16.412030 2.179540 -2.814052 9.349888 -5.772402 -15.404494 13.003116 2.203972 4.075402 -1.253486 -5.063762 -6.843148 5.473128 9.773423 -0.720923 4.714713 3.154437 0.446610 0.227330 0.206580 18.484833 -7.892366 5.146235 -14.288469 1.720383 -57.225300 11.901119 -24.440102 66.388468 -1.948398 -12.513936 0.160274 0.377950 0.565940 0.258860 -3.551862 -5.408079 -8.403888 9.577806 -7.454234 15.850166 -1.769742 -5.607493 9.997100 -4.437396 -5.692497 -9.194788 -15.359850 3.475249 28.777762 0.305180 0.136350 -9.628730 -25.213513 -22.674927 -0.050821 -23.308698 -36.338566 -2.768490 31.453884 -52.007468 -15.887025 -3.919729 2.590556 0.422610 0.334760 -0.151080 0.260020 33.218633 17.823067 11.146271 38.270462 -6.199048 -8.903863 7.753569 29.283705 -0.272634 1.664166 -1.601850 -0.356660 0.471420 0.092300 -0.120880 
0.169000 16.398400 2.249230 -2.290865 8.272547 -5.597616 -15.437946 13.279379 2.366011 4.042049 -1.230496 -4.792187 -7.110407 5.661285 10.254733 -0.641457 4.780624 3.129336 0.422830 0.211950 0.187220 18.376256 -8.228238 4.705995 -12.647960 1.224613 -54.172635 9.558237 -21.050987 62.099215 -1.613612 -11.287954 0.482656 0.346850 0.560010 0.266380 -3.365626 -5.531580 -8.270058 8.264727 -7.098813 15.050763 -0.884547 -5.628865 10.341685 -4.404075 -5.211715 -9.434275 -14.666109 3.366518 29.519723 0.182130 0.497220 -8.464780 -25.161542 -22.534160 0.694174 -25.906542 -36.707460 -2.209894 28.873350 -52.776505 -15.052095 -3.885137 2.656336 0.386780 0.343020 -0.156030 0.257790 33.219826 17.768737 11.009619 39.190870 -6.143677 -8.957380 7.335699 28.707072 -0.403556 1.699189 -1.613860 -0.328690 0.427130 0.083830 -0.106800 
0.166260 16.380820 2.323770 -1.725616 6.846856 -5.176369 -15.468172 13.528728 2.542720 3.983908 -1.211718 -4.667249 -7.652338 5.827285 10.287457 -0.599213 4.873439 3.109768 0.388960 0.172930 0.160580 18.276350 -8.575104 4.225960 -10.866067 0.858952 -50.963252 7.030723 -17.585445 57.235068 -1.257537 -9.938725 0.870452 0.322750 0.584650 0.271200 -3.189166 -5.605739 -8.089622 7.117055 -6.728241 13.856863 -0.238339 -5.558577 10.563017 -4.386675 -4.686589 -9.433069 -13.689074 3.135804 29.775289 -0.053690 0.746440 -7.141430 -25.069028 -22.100258 1.186533 -28.545390 -37.450755 -1.085660 25.859918 -53.049723 -13.781560 -3.877528 2.708241 0.359890 0.370650 -0.181890 0.261110 33.163452 17.326212 10.709328 40.212261 -5.925314 -8.876079 6.802387 28.084215 -0.539923 1.717330 -1.617410 -0.332990 0.406930 0.088880 -0.100920 
0.154540 16.352650 2.402170 -0.968358 5.324621 -4.602789 -15.521834 13.760105 2.694698 3.806672 -1.210848 -4.605404 -8.237332 6.026574 10.500609 -0.557568 4.992187 3.080116 0.358150 0.139500 0.140520 18.172800 -8.832216 3.801078 -9.368857 0.492867 -48.336477 4.642912 -14.499784 52.332225 -0.934523 -8.638704 1.257945 0.306730 0.616900 0.287570 -2.962611 -5.764244 -7.888030 5.572081 -6.404292 12.431540 0.461713 -5.533041 10.806177 -4.570269 -4.062897 -9.267821 -12.410806 2.812845 29.501444 -0.370100 1.014010 -5.945010 -24.169929 -21.272603 1.576127 -31.707443 -38.693105 0.608725 23.473536 -52.765764 -12.712552 -3.893968 2.759298 0.320170 0.408000 -0.208590 0.260720 32.683997 16.391674 10.061813 41.705594 -5.244580 -8.662114 6.056675 27.380057 -0.702921 1.744179 -1.616778 -0.332670 0.388020 0.098230 -0.091760 
0.142090 16.317320 2.480540 -0.505380 3.693136 -3.824092 -15.549008 13.947096 2.795468 3.775221 -1.259597 -4.777042 -8.650407 6.204196 10.851168 -0.552018 5.114967 3.056168 0.326520 0.105020 0.111230 18.110513 -9.040485 3.424923 -8.031432 0.252059 -45.794601 3.235985 -11.990268 46.594051 -0.625941 -7.334103 1.684060 0.305320 0.673520 0.297960 -2.827241 -5.882919 -7.630850 4.923966 -6.372620 10.783915 0.678655 -5.666808 10.835633 -4.774604 -3.585584 -8.855550 -11.212256 2.457434 28.507564 -0.810700 1.145130 -4.779130 -23.059275 -19.944256 1.736743 -35.172945 -40.276107 2.913417 22.631713 -52.104474 -12.281015 -3.944737 2.772849 0.274790 0.465460 -0.256790 0.265430 31.951016 14.859056 9.102396 43.185422 -4.307921 -8.255450 5.619802 26.734517 -0.799370 1.752421 -1.613793 -0.350420 0.389720 0.116550 -0.085280 
